<?xml version="1.0" ?><svg enable-background="new 0 0 100 100" version="1.1" viewBox="0 0 100 100" xml:space="preserve" xmlns="http://www.w3.org/2000/svg" xmlns:xlink="http://www.w3.org/1999/xlink"><g id="Layer_4"><path d="M50,16.383c-18.566,0-33.617,15.051-33.617,33.617c0,18.566,15.051,33.617,33.617,33.617   S83.617,68.566,83.617,50C83.617,31.434,68.566,16.383,50,16.383z M50.202,58.773c-4.135,0-7.487-3.352-7.487-7.487   s3.352-7.487,7.487-7.487s7.487,3.352,7.487,7.487S54.338,58.773,50.202,58.773z" fill="#232323"/><g><path d="M50,85.795c-19.737,0-35.795-16.058-35.795-35.795S30.263,14.205,50,14.205S85.795,30.263,85.795,50    S69.737,85.795,50,85.795z M60.482,58.642c-0.566,0-1.112,0.271-1.46,0.727c-0.351,0.457-0.466,1.04-0.316,1.598l3.917,14.621    c0.216,0.806,0.951,1.369,1.788,1.369c0.489,0,0.951-0.192,1.3-0.542l10.703-10.703c0.472-0.472,0.65-1.138,0.478-1.783    c-0.172-0.644-0.66-1.132-1.305-1.305l-14.621-3.917C60.807,58.663,60.645,58.642,60.482,58.642z M39.518,58.642    c-0.162,0-0.325,0.021-0.484,0.064l-14.621,3.917c-0.645,0.172-1.132,0.661-1.305,1.305c-0.173,0.645,0.006,1.312,0.478,1.783    l10.703,10.703c0.349,0.349,0.811,0.542,1.3,0.542c0.837,0,1.572-0.563,1.788-1.369l3.917-14.621    c0.15-0.559,0.035-1.142-0.316-1.599C40.629,58.913,40.083,58.642,39.518,58.642z M50,45.194c-2.65,0-4.806,2.156-4.806,4.806    S47.35,54.806,50,54.806S54.806,52.65,54.806,50S52.65,45.194,50,45.194z M64.412,23.044c-0.837,0-1.572,0.563-1.788,1.369    l-3.917,14.621c-0.15,0.559-0.035,1.142,0.316,1.599c0.349,0.455,0.895,0.726,1.46,0.726c0.162,0,0.325-0.021,0.484-0.064    l14.621-3.917c0.645-0.172,1.132-0.661,1.305-1.305c0.173-0.645-0.006-1.312-0.478-1.783L65.711,23.585    C65.362,23.236,64.901,23.044,64.412,23.044z M35.588,23.044c-0.489,0-0.951,0.192-1.3,0.542L23.585,34.289    c-0.472,0.472-0.65,1.138-0.478,1.783c0.172,0.644,0.66,1.132,1.305,1.305l14.621,3.917c0.159,0.043,0.322,0.064,0.484,0.064    c0.566,0,1.112-0.271,1.46-0.727c0.351-0.457,0.466-1.04,0.316-1.598l-3.917-14.621C37.161,23.607,36.425,23.044,35.588,23.044z" fill="#5B5B5B"/><path d="M50,14.705c19.462,0,35.295,15.833,35.295,35.295S69.462,85.295,50,85.295S14.705,69.462,14.705,50    S30.538,14.705,50,14.705 M39.518,41.858c0.72,0,1.414-0.345,1.857-0.922c0.446-0.581,0.593-1.322,0.403-2.032l-3.918-14.621    c-0.274-1.024-1.208-1.739-2.271-1.739c-0.623,0-1.21,0.244-1.653,0.688L23.232,33.935c-0.6,0.6-0.827,1.447-0.607,2.266    c0.219,0.819,0.84,1.439,1.659,1.659l14.621,3.918C39.106,41.831,39.312,41.858,39.518,41.858 M60.482,41.858    c0.206,0,0.412-0.027,0.613-0.081l14.621-3.918c0.819-0.219,1.439-0.839,1.659-1.659c0.22-0.819-0.007-1.666-0.607-2.266    L66.065,23.232c-0.444-0.444-1.031-0.688-1.653-0.688c-1.063,0-1.997,0.715-2.271,1.739l-3.918,14.621    c-0.19,0.71-0.044,1.451,0.403,2.033C59.068,41.514,59.763,41.858,60.482,41.858 M50,55.306c2.925,0,5.306-2.38,5.306-5.306    s-2.38-5.306-5.306-5.306s-5.306,2.38-5.306,5.306S47.075,55.306,50,55.306 M35.588,77.456c1.063,0,1.997-0.715,2.271-1.739    l3.918-14.621c0.19-0.71,0.044-1.451-0.403-2.033c-0.443-0.577-1.137-0.922-1.857-0.922c-0.206,0-0.412,0.027-0.613,0.081    l-14.621,3.918c-0.819,0.219-1.439,0.839-1.659,1.659c-0.22,0.819,0.007,1.666,0.607,2.266l10.703,10.703    C34.379,77.212,34.966,77.456,35.588,77.456 M64.412,77.456c0.623,0,1.21-0.244,1.653-0.688l10.703-10.703    c0.6-0.6,0.827-1.447,0.607-2.266c-0.219-0.819-0.84-1.439-1.659-1.659l-14.621-3.918c-0.201-0.054-0.408-0.081-0.613-0.081    c-0.72,0-1.414,0.345-1.857,0.922c-0.446,0.581-0.593,1.322-0.402,2.032l3.918,14.621C62.415,76.741,63.349,77.456,64.412,77.456     M50,13.705c-20.045,0-36.295,16.25-36.295,36.295S29.955,86.295,50,86.295S86.295,70.045,86.295,50S70.045,13.705,50,13.705    L50,13.705z M39.518,40.858c-0.116,0-0.234-0.015-0.354-0.047l-14.621-3.918c-1.001-0.268-1.336-1.519-0.603-2.251l10.703-10.703    c0.27-0.27,0.611-0.395,0.946-0.395c0.575,0,1.136,0.366,1.305,0.998l3.918,14.621C41.047,40.044,40.366,40.858,39.518,40.858    L39.518,40.858z M60.482,40.858c-0.849,0-1.53-0.815-1.294-1.695l3.918-14.621c0.169-0.632,0.73-0.998,1.305-0.998    c0.336,0,0.676,0.125,0.946,0.395l10.703,10.703c0.732,0.733,0.397,1.983-0.603,2.251l-14.621,3.918    C60.717,40.843,60.598,40.858,60.482,40.858L60.482,40.858z M50,54.306c-2.378,0-4.306-1.928-4.306-4.306s1.928-4.306,4.306-4.306    s4.306,1.928,4.306,4.306S52.378,54.306,50,54.306L50,54.306z M35.588,76.456c-0.336,0-0.676-0.125-0.946-0.395L23.939,65.358    c-0.732-0.733-0.397-1.983,0.603-2.251l14.621-3.918c0.12-0.032,0.239-0.047,0.354-0.047c0.849,0,1.53,0.815,1.294,1.695    l-3.918,14.621C36.724,76.09,36.163,76.456,35.588,76.456L35.588,76.456z M64.412,76.456c-0.575,0-1.136-0.366-1.305-0.998    l-3.918-14.621c-0.236-0.881,0.445-1.695,1.294-1.695c0.116,0,0.234,0.015,0.354,0.047l14.621,3.918    c1.001,0.268,1.336,1.519,0.603,2.251L65.358,76.061C65.088,76.331,64.747,76.456,64.412,76.456L64.412,76.456z" fill="#191919"/></g></g></svg>